<svg xmlns="http://www.w3.org/2000/svg" viewBox="0 0 132.93 103.05"><defs><style>.cls-1{fill:none;stroke:#000;stroke-miterlimit:10;}</style></defs><title>bocc-noir</title><g id="Calque_2" data-name="Calque 2"><g id="Calque_6" data-name="Calque 6"><path d="M67.1,25.57a113.06,113.06,0,0,0-21.43,20,86.3,86.3,0,0,0-8.32,11.92l-1.77,3.17L34,63.92l-.77,1.64-.65,1.68-1.28,3.38-1.81-1.88A58.87,58.87,0,0,1,48.6,66.91,44.24,44.24,0,0,1,67,72.05a38.26,38.26,0,0,1,7.73,5.75,38.62,38.62,0,0,1,5.92,7.52,50.55,50.55,0,0,1,6.22,17.73,57.86,57.86,0,0,0-7.56-16.87,38.12,38.12,0,0,0-6-6.83,35.93,35.93,0,0,0-7.46-5.09,43.68,43.68,0,0,0-17.45-4.44,57.87,57.87,0,0,0-9.12.2,57.18,57.18,0,0,0-8.94,1.54l-2.78.74,1-2.62A70.16,70.16,0,0,1,35,56.11c.61-1.1,1.33-2.12,2-3.15s1.38-2.1,2.17-3.06L41.57,47c.79-1,1.64-1.88,2.46-2.82A94.23,94.23,0,0,1,54.84,33.9,84.54,84.54,0,0,1,67.1,25.57Z"/><path d="M53.56,56.71a29.72,29.72,0,0,0,7.43-4,37,37,0,0,0,6-5.57l1.32-1.58c.44-.53.81-1.11,1.23-1.66.87-1.08,1.53-2.31,2.34-3.47s1.42-2.43,2.17-3.65S75.4,34.26,76.21,33c-.17,1.46-.46,2.9-.77,4.34s-.85,2.83-1.45,4.19a29.75,29.75,0,0,1-2.06,4c-.41.63-.79,1.27-1.24,1.88l-1.42,1.76a24.25,24.25,0,0,1-7.06,5.59A16.47,16.47,0,0,1,53.56,56.71Z"/><path d="M80.54,55.29c2.18,2.29,4.3,4.52,6.46,6.68s4.38,4.21,6.71,6.11a53.15,53.15,0,0,0,7.37,5.1,39.8,39.8,0,0,0,4.06,1.93,42.08,42.08,0,0,0,4.41,1.41,17.39,17.39,0,0,1-4.78,0,22.33,22.33,0,0,1-4.67-1.23,29.75,29.75,0,0,1-8.29-4.9,39.72,39.72,0,0,1-6.57-6.9A34,34,0,0,1,80.54,55.29Z"/><path d="M51.84,77.79a24.78,24.78,0,0,1-6,13.14,26.35,26.35,0,0,1-5.63,4.83,26.85,26.85,0,0,1-6.84,3,26.67,26.67,0,0,1-14.92-.24,27.59,27.59,0,0,1-6.83-3.29A30.32,30.32,0,0,1,6,90.16a29.25,29.25,0,0,1-3.93-6.5c-.26-.58-.45-1.18-.67-1.78L1.11,81l-.23-.92c-.15-.62-.33-1.23-.45-1.85L.16,76.33A26.18,26.18,0,0,1,.4,68.78a27.55,27.55,0,0,1,.87-3.67,28.65,28.65,0,0,1,1.47-3.47,25.69,25.69,0,0,1,10-10.77,25.13,25.13,0,0,1,6.82-2.74,25.83,25.83,0,0,1,7.21-.62l-1.79.2c-.29,0-.59.06-.88.11l-.88.19c-.58.14-1.17.22-1.74.39l-1.69.53a25,25,0,0,0-6.26,3.18,24.2,24.2,0,0,0-5.1,4.69,23.54,23.54,0,0,0-3.62,5.84A24.65,24.65,0,0,0,8.34,88.25a27.4,27.4,0,0,0,5,4.58,26.94,26.94,0,0,0,6.05,3,25.19,25.19,0,0,0,13.48.67A25.85,25.85,0,0,0,51.84,77.79Z"/><path d="M93.45,15.9a11.45,11.45,0,0,1-21,.43A11.52,11.52,0,0,1,75,3.16,11.71,11.71,0,0,1,79,.68,11.47,11.47,0,0,1,93.45,15.9Zm0,0a10,10,0,0,0-6-13.31A10.06,10.06,0,0,0,80,3.07a10,10,0,0,0,7.56,18.41A10.06,10.06,0,0,0,93.45,15.9Z"/><circle class="cls-1" cx="125.3" cy="77.87" r="7.13"/></g></g></svg>