<svg xmlns="http://www.w3.org/2000/svg" viewBox="0 0 118.22 72.25"><title>tri-noir</title><g id="Calque_2" data-name="Calque 2"><g id="Calque_6" data-name="Calque 6"><path d="M56.15,13.08a9,9,0,0,1-4.87,4.51,9.17,9.17,0,0,1-6.83-.07,9.06,9.06,0,0,1-5.58-8.74,9.75,9.75,0,0,1,.9-3.63A9.22,9.22,0,0,1,45.3.4,9.11,9.11,0,0,1,56.15,13.08Zm0,0A8.54,8.54,0,0,0,57,9.83a8.25,8.25,0,0,0-.55-3.27,8.12,8.12,0,1,0-5.21,10.77,8.47,8.47,0,0,0,2.91-1.6A8.58,8.58,0,0,0,56.15,13.08Z"/><path d="M106.79,63.61a5,5,0,0,0,.16,4.1,4.88,4.88,0,0,0,3,2.51,5,5,0,0,0,3.72-9.13,4.9,4.9,0,0,0-3.91-.31A5,5,0,0,0,106.79,63.61Zm0,0a5.93,5.93,0,0,1,2.87-3.09,6,6,0,0,1,4.4-.36,5.92,5.92,0,0,1,3.56,3.05,6,6,0,0,1-3.35,8.24,5.89,5.89,0,0,1-4.68-.31,5.95,5.95,0,0,1-2.8-7.53Z"/><path d="M7.34,38.7A19.34,19.34,0,0,0,1.56,53.14a18.12,18.12,0,0,0,21.53,17,19.25,19.25,0,0,0,12.72-8.94,17.91,17.91,0,0,1-4.9,6.64,18.61,18.61,0,0,1-7.49,3.83,19,19,0,0,1-8.51.09,19.56,19.56,0,0,1-7.74-3.64A19.12,19.12,0,0,1,0,53.16,18.26,18.26,0,0,1,7.34,38.7Z"/><path d="M35.1,20a64,64,0,0,0-7.35,7.82,65.12,65.12,0,0,0-5.94,8.88c-.92,1.53-1.65,3.15-2.43,4.74l-1,2.46c-.36.81-.65,1.65-.93,2.49A55.5,55.5,0,0,0,15,56.72l-1.27-.85A44.65,44.65,0,0,1,19.58,53c2-.82,4.06-1.57,6.13-2.2a95,95,0,0,1,12.66-3,102.26,102.26,0,0,1,25.92-1A88.86,88.86,0,0,1,101.15,58.4a94.86,94.86,0,0,1,10.67,7.25,115.07,115.07,0,0,0-11-6.62A106,106,0,0,0,89.06,54a98.69,98.69,0,0,0-24.93-5.27,107.26,107.26,0,0,0-25.44,1.08,95.5,95.5,0,0,0-12.42,2.85c-2,.59-4,1.29-6,2.06a43.72,43.72,0,0,0-5.71,2.67l-1.6.91.32-1.77a55.36,55.36,0,0,1,2.81-10.54c.57-1.73,1.41-3.35,2.14-5s1.67-3.23,2.65-4.75a60.43,60.43,0,0,1,6.43-8.71A54.85,54.85,0,0,1,35.1,20Z"/><path d="M41.68,21.85a11.76,11.76,0,0,1-.08,6.2,18,18,0,0,1-2.67,5.7,21.76,21.76,0,0,1-4.3,4.53c-.8.65-1.69,1.19-2.55,1.76s-1.82,1-2.77,1.36c.71-.77,1.45-1.45,2.18-2.14s1.41-1.42,2.09-2.13,1.37-1.42,1.94-2.22c.3-.38.63-.74.92-1.13l.85-1.17a28.13,28.13,0,0,0,2.83-5.05A21.14,21.14,0,0,0,41.68,21.85Z"/></g></g></svg>