<svg xmlns="http://www.w3.org/2000/svg" viewBox="0 0 102.74 116.03"><defs><style>.cls-1{fill:none;stroke:#000;stroke-miterlimit:10;stroke-width:0.75px;}</style></defs><title>sarb-noir</title><g id="Calque_2" data-name="Calque 2"><g id="Calque_6" data-name="Calque 6"><path d="M54.67,21q-7.5,17.55-15.42,34.9-3.95,8.67-8,17.32l-4,8.64-.51,1.08c-.17.3-.39.94-.29.53a1.09,1.09,0,0,0,0-.18,1.06,1.06,0,0,0-.09-.31,1.43,1.43,0,0,0-.26-.38,1.19,1.19,0,0,0-.35-.25,1,1,0,0,0-.52-.11l.25-.08c.28-.11.62-.27.95-.44,1.35-.69,2.74-1.49,4.13-2.26,5.59-3.09,11.49-6,18-7.27a21.51,21.51,0,0,1,10.08.23A15.52,15.52,0,0,1,67,78.29a26.55,26.55,0,0,1,4,9,52.46,52.46,0,0,1,1.4,9.59,87.83,87.83,0,0,1,0,9.6c-.15,3.19-.47,6.36-.89,9.51a126.21,126.21,0,0,0-.64-19A52.1,52.1,0,0,0,69,87.89a24.25,24.25,0,0,0-4-8.12A13.22,13.22,0,0,0,58,75a20,20,0,0,0-8.81,0c-6,1.2-11.62,4-17.16,7-1.39.76-2.76,1.53-4.25,2.28-.38.19-.76.37-1.22.55a4.7,4.7,0,0,1-.89.24,1.88,1.88,0,0,1-1.1-.15,1.61,1.61,0,0,1-.82-.83,2.07,2.07,0,0,1-.14-.79,2.89,2.89,0,0,1,.15-.71,2.75,2.75,0,0,1,.18-.41l.26-.55.52-1.07L28.84,72Q33,63.46,37.28,54.94,45.77,37.87,54.67,21Z"/><path d="M49.34,45a63.48,63.48,0,0,0,10.32-3.83,49.57,49.57,0,0,0,9.15-5.62l1.08-.81,1-.89c.66-.6,1.37-1.15,2-1.79l1.86-1.94.47-.48.42-.53.86-1a47.2,47.2,0,0,0,3.24-4.38,25.47,25.47,0,0,0,1.46-2.34c.48-.8,1-1.59,1.49-2.39-.22.91-.47,1.82-.73,2.73A19.25,19.25,0,0,1,81,24.36L79.83,27a7.66,7.66,0,0,1-.68,1.26l-.77,1.21A30.81,30.81,0,0,1,74.91,34c-.62.73-1.37,1.34-2,2l-1.07,1-1.14.88a33.75,33.75,0,0,1-10.12,5.41A29.54,29.54,0,0,1,49.34,45Z"/><path d="M43.41,95.16a20.08,20.08,0,0,1-5.72,9.26,22.54,22.54,0,0,1-9.7,5.44,22.25,22.25,0,0,1-21.3-5.47,22.78,22.78,0,0,1-3.61-4.51,21.67,21.67,0,0,1-2.25-5.3A22.13,22.13,0,0,1,.64,83.3a23,23,0,0,1,5.09-9.82,22,22,0,0,1,9-6.09A21.56,21.56,0,0,0,6.37,74a21.32,21.32,0,0,0-4,9.63,21.72,21.72,0,0,0,6.45,18.6,21,21,0,0,0,8.63,5.12,21.2,21.2,0,0,0,5,.93,23.36,23.36,0,0,0,5.14-.34A20.56,20.56,0,0,0,37,103.6,23.4,23.4,0,0,0,43.41,95.16Z"/><path d="M70.17,8.55A8.5,8.5,0,0,1,56,14.94,8.6,8.6,0,0,1,56,2.15a8.52,8.52,0,0,1,14.15,6.4Zm0,0a7.12,7.12,0,0,0-2.41-5.34,7,7,0,1,0-5.34,12.34,7,7,0,0,0,5.34-1.67A7.1,7.1,0,0,0,70.17,8.55Z"/><path class="cls-1" d="M86.35,10.81h16v3.54H83.69a3.88,3.88,0,0,1-6.85,0h-7V10.81h6.92a3.88,3.88,0,0,1,3.47-2.15,3.92,3.92,0,0,1,3.49,2.15Z"/><line class="cls-1" x1="73.56" y1="10.81" x2="73.56" y2="14.35"/><line class="cls-1" x1="102.37" y1="9.08" x2="102.37" y2="16.41"/><line class="cls-1" x1="91.19" y1="10.81" x2="91.19" y2="14.35"/></g></g></svg>