<svg xmlns="http://www.w3.org/2000/svg" viewBox="0 0 162.8 127.7"><title>escr-noir</title><g id="Calque_2" data-name="Calque 2"><g id="Calque_4" data-name="Calque 4"><path d="M14.76,0a103,103,0,0,0,9.09,13A86,86,0,0,0,34.78,24.18a61,61,0,0,0,12.91,8.56,48.26,48.26,0,0,0,14.67,4.44l1.19.16.09,1.28,0,.55.07.69.16,1.41c.09,1,.16,1.92.19,2.89A48.62,48.62,0,0,1,64,50,44.38,44.38,0,0,1,61.49,61.2a23.62,23.62,0,0,1-1.05,2.68c-.38.87-.71,1.77-1.18,2.61L58,69c-.47.83-1,1.63-1.49,2.44a53.71,53.71,0,0,1-3.25,4.65c-1.15,1.5-2.46,2.88-3.68,4.3,1-1.58,2.12-3.11,3.1-4.7s2-3.18,2.73-4.88a54.77,54.77,0,0,0,4.12-10.28,47.38,47.38,0,0,0,1.87-10.79,45.36,45.36,0,0,0,0-5.47c0-.91-.16-1.81-.25-2.72l-.17-1.39-.09-.71-.06-.86L62,40.07a50,50,0,0,1-8-1.66,48,48,0,0,1-7.6-3,57.82,57.82,0,0,1-13.3-9.28A74.74,74.74,0,0,1,22.54,13.94,73.29,73.29,0,0,1,14.76,0Z"/><path d="M0,125.92l10.48-7.15c1.73-1.2,3.46-2.38,5.15-3.62.84-.63,1.7-1.21,2.55-1.83l2.49-1.9c3.29-2.56,6.56-5.13,9.6-8a80.76,80.76,0,0,0,8.5-9.26A37.18,37.18,0,0,1,32,105.07a65.2,65.2,0,0,1-9.46,8.74,86.79,86.79,0,0,1-10.78,7A67.85,67.85,0,0,1,0,125.92Z"/><path d="M45.61,48.22C43.89,51.79,42.32,55.4,41,59.08a60.06,60.06,0,0,0-3.06,11.2,25.93,25.93,0,0,0-.25,5.61,10.76,10.76,0,0,0,1.53,5,8.1,8.1,0,0,0,.77,1,12.38,12.38,0,0,0,1,.9c.71.64,1.45,1.26,2.21,1.86,1.51,1.22,3.07,2.39,4.65,3.56,3.16,2.35,6.34,4.76,9.37,7.41a48.31,48.31,0,0,1,8.06,9.05A32.4,32.4,0,0,1,70,115.78a34.67,34.67,0,0,1,.4,11.92,41.94,41.94,0,0,0-1.85-11.54,29.81,29.81,0,0,0-2.2-5.32,35.83,35.83,0,0,0-3-4.85,50.37,50.37,0,0,0-8-8.26c-2.93-2.52-6.1-4.81-9.27-7.18-1.57-1.2-3.15-2.41-4.7-3.69-.78-.64-1.55-1.29-2.29-2a12.67,12.67,0,0,1-1.16-1.16,9.86,9.86,0,0,1-1-1.39,13.18,13.18,0,0,1-1.74-6.28,24.81,24.81,0,0,1,.58-6.17,52.17,52.17,0,0,1,4-11.35A74.13,74.13,0,0,1,45.61,48.22Z"/><path d="M72.68,43a25.65,25.65,0,0,0,9.16,7.88,30.68,30.68,0,0,0,11.4,3.15l1.49.13.75.08c.25,0,.5,0,.75,0l3,0H100c.25,0,.5,0,.76-.07l1.51-.15c1-.11,2-.17,3-.27s2-.36,3-.52,2-.27,3.06-.5c2-.44,4-.9,6.14-1.23-1.86,1-3.8,1.8-5.74,2.65s-4,1.3-6.07,1.9c-1,.23-2.09.41-3.14.58L101,56.9l-.79.12-.81,0-3.23.15-.81,0-.81-.07L93,57l-1.62-.16c-.54-.07-1.07-.22-1.6-.32l-1.6-.36-.8-.17-.78-.28L85,55.17a10.06,10.06,0,0,1-1.51-.64,23.57,23.57,0,0,1-2.86-1.61A19.6,19.6,0,0,1,72.68,43Z"/><path d="M87.81,26.06a9.83,9.83,0,0,1-16.44,7.35A10.33,10.33,0,0,1,69,30.09a10.15,10.15,0,0,1-.85-4,10,10,0,0,1,3.24-7.36,9.75,9.75,0,0,1,7.35-2.52,9.9,9.9,0,0,1,9.09,9.88Zm0,0a8.49,8.49,0,0,0-2.8-6.3,8.3,8.3,0,0,0-6.29-2.08,8.42,8.42,0,0,0,0,16.76A8.29,8.29,0,0,0,85,32.36,8.51,8.51,0,0,0,87.81,26.06Z"/><rect x="115.23" y="48.28" width="0.79" height="6.22" rx="0.4"/><rect x="109.39" y="51" width="53.41" height="1.12" rx="0.56"/></g></g></svg>