<svg xmlns="http://www.w3.org/2000/svg" viewBox="0 0 74.92 96.9"><defs><style>.cls-1{fill:none;stroke:#000;stroke-miterlimit:10;}</style></defs><title>tir-noir</title><g id="Calque_2" data-name="Calque 2"><g id="Calque_4" data-name="Calque 4"><path d="M32.68,13.67a11.51,11.51,0,0,1-11,11.49,11.64,11.64,0,0,1-8.38-3.11,11.54,11.54,0,0,1-2.66-3.81,11.76,11.76,0,0,1-1-4.57,12,12,0,0,1,.94-4.58A11.83,11.83,0,0,1,13.3,5.28a11.59,11.59,0,0,1,8.38-3.11,11.51,11.51,0,0,1,11,11.5Zm0,0a11.19,11.19,0,0,0-.87-4.2A10.82,10.82,0,0,0,29.36,6a10.64,10.64,0,0,0-7.68-2.82,10.51,10.51,0,0,0,0,21,10.5,10.5,0,0,0,10.13-6.31A11.14,11.14,0,0,0,32.68,13.67Z"/><path d="M15.22,56a27.11,27.11,0,0,1,1.69,11.45,36.63,36.63,0,0,1-2.53,11.44,42.15,42.15,0,0,1-6,10,19.07,19.07,0,0,1-1.91,2.2l-2,2.09C3,94.5,1.51,95.72,0,96.9c1.21-1.51,2.52-2.9,3.73-4.37l1.73-2.26.87-1.12c.3-.36.53-.78.8-1.17.51-.79,1-1.58,1.56-2.35s.92-1.64,1.38-2.45a45.19,45.19,0,0,0,2.45-5.05,44.76,44.76,0,0,0,2.84-10.81A38.38,38.38,0,0,0,15.22,56Z"/><path d="M5.23,76.45a11.67,11.67,0,0,1-3-4.16,18.77,18.77,0,0,1-1.45-5,24.09,24.09,0,0,1-.19-5.23,32.21,32.21,0,0,1,.77-5.18A50.07,50.07,0,0,1,4.71,47a80.38,80.38,0,0,1,4.93-9.14l1.56-2.51.23,3a14.92,14.92,0,0,0,1,4,21.09,21.09,0,0,0,2,3.77,23.86,23.86,0,0,0,5.93,6.14,35,35,0,0,0,7.59,4.2,52.24,52.24,0,0,0,8.38,2.62l-.4,0a41.21,41.21,0,0,0,4.69-2.27c1.52-.85,3-1.78,4.47-2.76s2.88-2,4.24-3.17,2.68-2.3,4-3.51a51.52,51.52,0,0,1-3.68,3.86c-1.28,1.23-2.65,2.38-4,3.5a47.84,47.84,0,0,1-4.38,3.08,36.89,36.89,0,0,1-4.76,2.59l-.18.07-.23,0a51.6,51.6,0,0,1-8.73-2.4,36.53,36.53,0,0,1-8.08-4.26,25.82,25.82,0,0,1-6.46-6.6,20.4,20.4,0,0,1-2.15-4.15,16.21,16.21,0,0,1-1.08-4.65l1.8.49a92.64,92.64,0,0,0-5,8.85A54,54,0,0,0,2.7,57.22a29.73,29.73,0,0,0-1.11,10,17.71,17.71,0,0,0,1,4.92A12.27,12.27,0,0,0,5.23,76.45Z"/><path d="M16.3,38.41c3-.42,6-.63,9-.78s6-.2,9-.22,6,.06,9,.22,6,.36,8.95.78c-3,.41-6,.63-8.95.78s-6,.2-9,.22-6-.06-9-.22S19.28,38.82,16.3,38.41Z"/><rect class="cls-1" x="17.59" y="10.59" width="9.54" height="6.89" rx="1.2"/><rect class="cls-1" x="20.36" y="0.5" width="4" height="10.09" rx="0.72"/><path class="cls-1" d="M72.42,33.3,49.07,34.62a2,2,0,0,1-2-2V27.15a2,2,0,0,1,2-2l23.35,1.32a2,2,0,0,1,2,2V31.3A2,2,0,0,1,72.42,33.3Z"/><path class="cls-1" d="M56.77,34.13H54.55a1.5,1.5,0,0,0-1.5,1.5L50.4,43.56a1.52,1.52,0,0,0,1.51,1.51h2.22a1.51,1.51,0,0,0,1.5-1.51l2.65-7.93A1.51,1.51,0,0,0,56.77,34.13Z"/></g></g></svg>