<svg xmlns="http://www.w3.org/2000/svg" viewBox="0 0 89.64 114.33"><defs><style>.cls-1{fill:none;stroke:#000;stroke-miterlimit:10;}</style></defs><title>foot-noir</title><g id="Calque_2" data-name="Calque 2"><g id="Calque_4" data-name="Calque 4"><path d="M89.64,5.56c-6.34,1.5-12.65,3.07-18.86,5A149.52,149.52,0,0,0,52.54,17a42.63,42.63,0,0,0-8.19,4.69,11.41,11.41,0,0,0-2.94,3.21,17.78,17.78,0,0,0-1.66,4.19A62.53,62.53,0,0,0,38.34,48a79.15,79.15,0,0,0,1.1,9.5,40.6,40.6,0,0,0,1.11,4.57,19.59,19.59,0,0,0,.8,2.11,10.55,10.55,0,0,0,.49,1,3.09,3.09,0,0,0,.52.71A12.77,12.77,0,0,0,46,68.17c1.41.64,2.91,1.2,4.43,1.74,3,1.09,6.16,2,9.23,3.49A18.62,18.62,0,0,1,62,74.69a6.46,6.46,0,0,1,2,2.09,5.09,5.09,0,0,1,.42,3,17,17,0,0,1-.51,2.54,54.71,54.71,0,0,1-3.69,9.2q-2.19,4.4-4.77,8.57c-.86,1.39-1.75,2.76-2.71,4.09a20.14,20.14,0,0,1-3.22,3.67,20.08,20.08,0,0,0,2.87-3.91q1.27-2.07,2.41-4.23,2.28-4.29,4.16-8.77a58,58,0,0,0,3.13-9.07,14.05,14.05,0,0,0,.34-2.26,3.17,3.17,0,0,0-.25-1.78,4.29,4.29,0,0,0-1.42-1.29,15.3,15.3,0,0,0-2-1c-2.88-1.2-6-2-9.14-3.08-1.56-.52-3.13-1-4.69-1.72a14.74,14.74,0,0,1-4.59-2.83,5.9,5.9,0,0,1-.94-1.23,11.91,11.91,0,0,1-.64-1.22A23.53,23.53,0,0,1,37.78,63a42.82,42.82,0,0,1-1.23-4.9,73.38,73.38,0,0,1-1.19-9.88,80.26,80.26,0,0,1,.07-9.93,46.48,46.48,0,0,1,1.63-9.92,19.86,19.86,0,0,1,2-4.8,13.64,13.64,0,0,1,3.67-3.88,41.44,41.44,0,0,1,8.86-4.74A126.76,126.76,0,0,1,70.41,9.14C76.78,7.7,83.18,6.42,89.64,5.56Z"/><path d="M13,45.52a24.41,24.41,0,0,1,2.27-7.43,28.3,28.3,0,0,1,4.3-6.57,22.75,22.75,0,0,1,6.14-4.94c.6-.3,1.18-.61,1.77-.9L29.3,25c.31-.1.62-.21.93-.29l1-.18c.64-.11,1.28-.21,1.92-.29-.59.29-1.17.56-1.75.82l-.87.37c-.28.15-.55.32-.82.47L28,26.85c-.51.36-1,.7-1.54,1A16.26,16.26,0,0,0,25,29a14.65,14.65,0,0,0-1.41,1.2l-1.35,1.26L21,32.85a45.35,45.35,0,0,0-4.43,6A72.53,72.53,0,0,0,13,45.52Z"/><path d="M33.12,68.56a53.55,53.55,0,0,0-3.42,5A47.79,47.79,0,0,0,27,78.9a31.27,31.27,0,0,0-1.85,5.56,24.06,24.06,0,0,0-.63,5.7l0,2.43-2.11-1.17c-1.49-.83-2.84-1.69-4.2-2.63a43.24,43.24,0,0,1-3.91-3c-.64-.51-1.24-1.06-1.85-1.61s-1.21-1.1-1.78-1.69c-1.17-1.15-2.23-2.41-3.3-3.66a38.36,38.36,0,0,1-5.13-8.39A27.05,27.05,0,0,1,0,61a38.93,38.93,0,0,0,3.69,8.71,49.1,49.1,0,0,0,5.6,7.46c1.07,1.12,2.14,2.26,3.31,3.29.55.54,1.13,1.07,1.73,1.57s1.17,1,1.79,1.51a66.62,66.62,0,0,0,7.61,5.36L21.6,90.16a26.51,26.51,0,0,1,1-6.36A30.52,30.52,0,0,1,25.16,78a35.92,35.92,0,0,1,3.57-5.11A30.45,30.45,0,0,1,33.12,68.56Z"/><path d="M49,29.16a33.57,33.57,0,0,1,2.31,6.53,41.49,41.49,0,0,1,1.13,6.85,27.08,27.08,0,0,1-.34,7A11.08,11.08,0,0,1,49,55.8a16.21,16.21,0,0,0,1.56-6.45c.06-1.11.09-2.22,0-3.33s-.07-2.22-.17-3.34c-.14-2.23-.41-4.46-.66-6.71S49.22,31.46,49,29.16Z"/><path d="M35.12,16.12A8,8,0,0,1,29.68,14a8.11,8.11,0,0,1-2.62-5.44A8,8,0,0,1,31.86.69,8.47,8.47,0,0,1,35.12,0a8.19,8.19,0,0,1,6,2.6A8.05,8.05,0,0,1,40.56,14,8,8,0,0,1,35.12,16.12Zm0,0A7.7,7.7,0,0,0,38,15.51a7.58,7.58,0,0,0,2.37-1.7,7,7,0,0,0,1.81-5.25,7.17,7.17,0,0,0-2.32-4.74,7.07,7.07,0,0,0-10,10A7.2,7.2,0,0,0,35.12,16.12Z"/><circle class="cls-1" cx="9.9" cy="107.17" r="6.66"/></g></g></svg>