<svg xmlns="http://www.w3.org/2000/svg" viewBox="0 0 126.87 118.49"><title>arc-noir</title><g id="Calque_2" data-name="Calque 2"><g id="Calque_6" data-name="Calque 6"><path d="M91.2.41A68.23,68.23,0,0,0,77.21,2,71.4,71.4,0,0,0,63.9,6.15,66.93,66.93,0,0,0,41.28,21.84a78.57,78.57,0,0,0-8.51,10.94l-1.79,3c-.3.5-.61,1-.89,1.5l-.8,1.55-1.6,3.1-1.45,3.18a141.57,141.57,0,0,0-8.48,26.84A100.4,100.4,0,0,1,24.08,44.2l1.32-3.34L27,37.61,27.73,36c.27-.53.58-1.05.87-1.57l1.76-3.15A78.41,78.41,0,0,1,39.1,19.78a66.42,66.42,0,0,1,11.07-9.29A61.75,61.75,0,0,1,63,4,64.67,64.67,0,0,1,77,.53,54.68,54.68,0,0,1,91.2.41Z"/><path d="M49.44,18.17a61.36,61.36,0,0,0,5,7.6,57.1,57.1,0,0,0,6,6.74,40.41,40.41,0,0,0,7.06,5.4L69.38,39c.64.36,1.35.58,2,.88l1,.43c.34.13.7.21,1,.32l2.11.62,2,.58L75.92,43a47.33,47.33,0,0,0-5.23,4.55A58,58,0,0,0,66,52.75,59.55,59.55,0,0,0,62,58.51a63.41,63.41,0,0,0-3.42,6.22,45.76,45.76,0,0,1,2.66-6.64,44.38,44.38,0,0,1,3.65-6.2,46.89,46.89,0,0,1,4.54-5.62,39.44,39.44,0,0,1,5.39-4.9l.35,1.75a30,30,0,0,1-8.71-3.55,37.35,37.35,0,0,1-7.24-5.88,47.48,47.48,0,0,1-5.65-7.32,43.83,43.83,0,0,1-2.26-4A35.54,35.54,0,0,1,49.44,18.17Z"/><path d="M59,81.05c.14,3.53.38,7,.76,10.37a70.07,70.07,0,0,0,1.9,10,46.49,46.49,0,0,0,1.6,4.75,38.76,38.76,0,0,0,2.19,4.49,31.19,31.19,0,0,0,2.89,4.12A39.62,39.62,0,0,0,72,118.49a19.4,19.4,0,0,1-4.64-2.67A22.52,22.52,0,0,1,63.55,112a28.07,28.07,0,0,1-4.74-9.75,38.2,38.2,0,0,1-1.33-10.66A35.45,35.45,0,0,1,59,81.05Z"/><path d="M0,112.25a66.78,66.78,0,0,1,10.33-15,75.29,75.29,0,0,1,13.76-12.1,76.34,76.34,0,0,1,16.36-8.44A83.25,83.25,0,0,1,58.4,72.42h.25a23.44,23.44,0,0,0,4.5-.38,27.15,27.15,0,0,0,12.47-5.62,25.59,25.59,0,0,0,3.31-3.19c.53-.56,1-1.19,1.46-1.79s.9-1.24,1.29-1.92A36.71,36.71,0,0,0,85.5,51l.77-2.51,1.73,2a50.33,50.33,0,0,0,14.2,11.79,23.48,23.48,0,0,0,8.6,2.75,15.43,15.43,0,0,0,4.45-.19,18.22,18.22,0,0,0,4.25-1.44,11.79,11.79,0,0,0,3.56-2.58,8.58,8.58,0,0,0,2-3.8,13.16,13.16,0,0,0-1.43-8.76,18,18,0,0,0-6.09-6.94,9.32,9.32,0,0,0-4.34-1.55A5.38,5.38,0,0,0,109,41.45a5.54,5.54,0,0,1,4.26-2,9.34,9.34,0,0,1,4.66,1.35,18.86,18.86,0,0,1,6.78,6.93,14.09,14.09,0,0,1,2,9.66A10.18,10.18,0,0,1,124.43,62a13.65,13.65,0,0,1-4,3.18A19.66,19.66,0,0,1,115.69,67a18,18,0,0,1-5.07.38A25.16,25.16,0,0,1,101,64.61a44.91,44.91,0,0,1-8.22-5.41,53.6,53.6,0,0,1-7-6.85l2.5-.49a39.18,39.18,0,0,1-4.07,9.21c-.42.74-1,1.41-1.41,2.12s-1,1.36-1.6,2a26.93,26.93,0,0,1-3.68,3.56,29.12,29.12,0,0,1-8.92,4.9,30,30,0,0,1-4.94,1.25,25.64,25.64,0,0,1-5.17.39h.25a81.09,81.09,0,0,0-17.41,3.83A76.72,76.72,0,0,0,25.2,86.83a80.44,80.44,0,0,0-14,11.22A73.63,73.63,0,0,0,0,112.25Z"/><path d="M82.79,22.9a10.12,10.12,0,0,1,13.65-2.83A10.09,10.09,0,0,1,101,30.61a10.09,10.09,0,0,1-4.61,6.64,10.12,10.12,0,0,1-3.85,1.41,10.23,10.23,0,0,1-7.62-2A10.14,10.14,0,0,1,82.79,22.9Zm0,0a9.6,9.6,0,0,0-1.45,3.44,9,9,0,0,0,4.15,9.5,9.11,9.11,0,0,0,10.38-15A9.24,9.24,0,0,0,89,19.06a9.12,9.12,0,0,0-3.49,1.27A9.51,9.51,0,0,0,82.79,22.9Z"/></g></g></svg>