<svg xmlns="http://www.w3.org/2000/svg" viewBox="0 0 140.43 130.77"><defs><style>.cls-1{fill:none;stroke:#000;stroke-miterlimit:10;}</style></defs><title>basket-noir</title><g id="Calque_2" data-name="Calque 2"><g id="Calque_6" data-name="Calque 6"><path d="M0,128.31c2.55-2,5-3.87,7.43-5.84a92.05,92.05,0,0,0,6.83-6.21,46.64,46.64,0,0,0,5.76-7,33.57,33.57,0,0,0,2.19-4,35.53,35.53,0,0,0,1.6-4.42,16.56,16.56,0,0,1-.2,4.86,21.57,21.57,0,0,1-1.54,4.68,28.34,28.34,0,0,1-5.67,8,39,39,0,0,1-7.62,6A34.29,34.29,0,0,1,0,128.31Z"/><path d="M7.8,90.13A21.65,21.65,0,0,1,7.27,81a25.54,25.54,0,0,1,2.89-8.84A24.91,24.91,0,0,1,16,64.87a24.25,24.25,0,0,1,3.72-2.74,14.09,14.09,0,0,1,2-1.06c.69-.32,1.38-.63,2.09-.91-.53.56-1.08,1.08-1.62,1.59s-1.14,1-1.61,1.54c-1,1.09-2.07,2.07-2.95,3.22a38.77,38.77,0,0,0-4.82,7,39.83,39.83,0,0,0-3.25,7.92A52.18,52.18,0,0,0,7.8,90.13Z"/><path d="M40.64,88.49c1.38-2.65,2.68-5.32,3.86-8a86.61,86.61,0,0,0,3.23-8.2,48.43,48.43,0,0,0,2.12-8.39,24.21,24.21,0,0,0,0-8.32L49.54,54l1.55-.25a57,57,0,0,0,8.25-2.09,50.32,50.32,0,0,0,7.88-3.27,33.38,33.38,0,0,0,3.63-2.2,24.2,24.2,0,0,0,3.28-2.69,19.07,19.07,0,0,0,4.69-7.16,16.23,16.23,0,0,1-1.23,4.28,19.54,19.54,0,0,1-2.37,3.85,26.8,26.8,0,0,1-6.84,5.94,43.3,43.3,0,0,1-8.11,3.92,54.19,54.19,0,0,1-8.72,2.38l1.23-1.79a25.9,25.9,0,0,1-.13,9.42,42.67,42.67,0,0,1-2.73,8.74,60.34,60.34,0,0,1-4.11,8A59.93,59.93,0,0,1,40.64,88.49Z"/><path d="M38.52,50.72a151.84,151.84,0,0,0-6.88,21.71A58.35,58.35,0,0,0,30.13,83.5c-.08,3.64.4,7.39,2.22,10.17A17.69,17.69,0,0,0,36,97.43a29.14,29.14,0,0,0,4.61,2.87,45.73,45.73,0,0,1,5.12,2.88,14.66,14.66,0,0,1,4.33,4.5,17.36,17.36,0,0,1,2,5.78,28.45,28.45,0,0,1,.38,5.88,59,59,0,0,1-1.5,11.43,108,108,0,0,0-.13-11.39,31.94,31.94,0,0,0-.86-5.48,15.65,15.65,0,0,0-2-4.87,12,12,0,0,0-3.71-3.52c-1.5-.93-3.19-1.73-4.92-2.6a30.37,30.37,0,0,1-5.12-3.12,20.86,20.86,0,0,1-4.21-4.52,15.12,15.12,0,0,1-2.17-5.87,28.21,28.21,0,0,1-.26-6,54.29,54.29,0,0,1,2.09-11.49A102,102,0,0,1,38.52,50.72Z"/><path d="M53.12,28.51a11.22,11.22,0,0,1-18.78,8.31A11.28,11.28,0,0,1,31.64,24a11.51,11.51,0,0,1,2.69-3.76,11.14,11.14,0,0,1,8.32-2.9A11.27,11.27,0,0,1,53.12,28.51Zm0,0a9.84,9.84,0,0,0-3.22-7.26,9.75,9.75,0,1,0,0,14.51A9.82,9.82,0,0,0,53.12,28.51Z"/><circle class="cls-1" cx="90.36" cy="20.62" r="6.77"/><path class="cls-1" d="M114.14,12.58s6.27,2.82,17.34,0"/><path class="cls-1" d="M113.08,25.91s5.74-24.22-7.39-25,34.71,0,34.71,0-11.91-.83-8.21,25"/><path class="cls-1" d="M123,25.91S121.84.36,125.28.5"/></g></g></svg>