<svg xmlns="http://www.w3.org/2000/svg" viewBox="0 0 109.05 127.47"><title>athle-noir</title><g id="Calque_2" data-name="Calque 2"><g id="Calque_4" data-name="Calque 4"><path d="M24,10.74a10.72,10.72,0,0,1,17.92-8,11.26,11.26,0,0,1,2.59,3.59,11.12,11.12,0,0,1,.92,4.37,10.83,10.83,0,0,1-3.5,8,10.71,10.71,0,0,1-8,2.76A10.77,10.77,0,0,1,24,10.74Zm0,0a9.39,9.39,0,0,0,3.07,6.9A9.19,9.19,0,0,0,34,20a9.34,9.34,0,0,0,6.13-3.08,9.23,9.23,0,0,0-13-13A9.39,9.39,0,0,0,24,10.74Z"/><path d="M46.25,68.13a78.45,78.45,0,0,1-7-7.9,84.84,84.84,0,0,1-6-8.75,67.63,67.63,0,0,1-4.77-9.56,59.43,59.43,0,0,1-3.14-10.34l-.31-1.41,1.51-.56h0c1.84-.47,3.56-.84,5.34-1.18s3.53-.66,5.3-.92c3.55-.52,7.1-.94,10.67-1.17a113.74,113.74,0,0,1,21.36.39A95.69,95.69,0,0,1,90,31.47a88.35,88.35,0,0,1,19,9.37,87.3,87.3,0,0,0-9.33-5c-1.59-.78-3.25-1.39-4.87-2.08-.83-.32-1.67-.59-2.5-.89s-1.66-.59-2.51-.83a94.57,94.57,0,0,0-20.72-3.95,111.19,111.19,0,0,0-21,.37c-3.48.42-6.95,1-10.37,1.73a75.28,75.28,0,0,0-10,2.85h0l1.21-2A56.88,56.88,0,0,0,31,41a67.69,67.69,0,0,0,3.82,9.61A85.66,85.66,0,0,0,40,59.72,77,77,0,0,0,46.25,68.13Z"/><path d="M45.38,33.91A117.4,117.4,0,0,1,55.49,47.22c3,4.72,5.73,9.73,7,15.42a16.5,16.5,0,0,1-.26,8.91,11.64,11.64,0,0,1-2.38,4,14.15,14.15,0,0,1-3.63,2.85,27.66,27.66,0,0,1-8.35,2.67c-2.81.5-5.6.79-8.35,1.1a77,77,0,0,0-8.08,1.13,15.78,15.78,0,0,0-6.91,2.94,7.76,7.76,0,0,0-2.7,6.3,20.78,20.78,0,0,0,1.75,7.57,53.81,53.81,0,0,0,3.7,7.25c1.38,2.37,2.92,4.65,4.52,6.91,3.17,4.52,6.65,8.84,10.13,13.18A149.77,149.77,0,0,1,30.58,115.2a68.44,68.44,0,0,1-9.23-14.12,21.88,21.88,0,0,1-2.24-8.48V91.44l.14-1.16a5.83,5.83,0,0,1,.24-1.16A7.55,7.55,0,0,1,19.85,88a9.88,9.88,0,0,1,2.75-3.93,13.73,13.73,0,0,1,4-2.39,24.58,24.58,0,0,1,4.22-1.28,78.24,78.24,0,0,1,8.4-1.26c2.76-.29,5.5-.55,8.16-1a26.12,26.12,0,0,0,7.49-2.27,9.74,9.74,0,0,0,4.85-5.22,14.8,14.8,0,0,0,.44-7.54,36.74,36.74,0,0,0-2.34-7.71A70.83,70.83,0,0,0,54.19,48C51.55,43.15,48.5,38.51,45.38,33.91Z"/><path d="M.33,33.91c1.08,2.37,2.08,4.59,3.23,6.63a17.28,17.28,0,0,0,4,5.08,9.5,9.5,0,0,0,2.57,1.51,11.32,11.32,0,0,0,3.06.69,36.92,36.92,0,0,0,7.22-.32A13.38,13.38,0,0,1,13.33,51,11,11,0,0,1,9,50.75a10.72,10.72,0,0,1-3.95-2,13.74,13.74,0,0,1-4.42-7A16.29,16.29,0,0,1,.33,33.91Z"/><path d="M61.68,85c2.79,2.39,5.5,4.67,8.28,6.81a76.32,76.32,0,0,0,8.57,5.8,44.81,44.81,0,0,0,9.32,4.05,39.88,39.88,0,0,0,10.37,1.53,20.63,20.63,0,0,1-11,1.55,28.67,28.67,0,0,1-10.69-3.66,37.68,37.68,0,0,1-8.7-7A33.09,33.09,0,0,1,61.68,85Z"/></g></g></svg>