<svg xmlns="http://www.w3.org/2000/svg" viewBox="0 0 188.26 52.74"><defs><style>.cls-1{fill:none;stroke:#000;stroke-miterlimit:10;}</style></defs><title>gb-noir</title><g id="Calque_2" data-name="Calque 2"><g id="Calque_6" data-name="Calque 6"><path d="M39.5,24.82a12.11,12.11,0,0,1,20.27-9,12.17,12.17,0,0,1,3.95,8.93,12.15,12.15,0,0,1-3.88,9,12,12,0,0,1-8.93,3.2A12.15,12.15,0,0,1,39.5,24.82Zm0,0a10.9,10.9,0,0,0,.93,4.33A11.07,11.07,0,0,0,43,32.69a10.56,10.56,0,0,0,7.89,2.7,10.65,10.65,0,0,0,9.82-10.65,10.61,10.61,0,0,0-17.78-7.81A10.73,10.73,0,0,0,39.5,24.82Z"/><circle class="cls-1" cx="9.92" cy="34.11" r="9.42"/><path d="M39.5,1.26A59.52,59.52,0,0,1,49.91.05,78.54,78.54,0,0,1,60.42.38,70.29,70.29,0,0,1,80.88,5.56a65.73,65.73,0,0,1,25.33,19c.56.69,1.14,1.37,1.68,2.07l1.56,2.16c1.06,1.47,2,2.74,3.07,4.12a44.52,44.52,0,0,0,7.12,7.14l1,.79c.32.26.69.48,1,.72.7.47,1.39,1,2.1,1.4a50,50,0,0,0,4.47,2.34,46.43,46.43,0,0,0,4.7,1.87,48.53,48.53,0,0,0,4.91,1.29A56.39,56.39,0,0,0,148,49.67a82.44,82.44,0,0,0,20.48-2.14,108.59,108.59,0,0,0,19.8-6.39,80.24,80.24,0,0,1-9.49,4.43q-4.87,1.93-10,3.39a94.08,94.08,0,0,1-10.31,2.24A74.41,74.41,0,0,1,148,52a52.66,52.66,0,0,1-10.62-1,52.17,52.17,0,0,1-5.22-1.26,47.74,47.74,0,0,1-5-1.89,43.48,43.48,0,0,1-4.81-2.45c-.76-.48-1.5-1-2.26-1.49-.37-.25-.76-.48-1.11-.76l-1.06-.84a46.88,46.88,0,0,1-7.66-7.57c-1-1.42-2.17-2.92-3.13-4.28l-1.5-2.08c-.51-.68-1.06-1.34-1.59-2-1-1.36-2.23-2.59-3.36-3.86-.58-.63-1.21-1.21-1.81-1.81S97.59,19.54,96.94,19a66,66,0,0,0-17-11.29,73.52,73.52,0,0,0-19.7-5.87A77,77,0,0,0,39.5,1.26Z"/><path d="M121.74,21a51.85,51.85,0,0,1,14.42-6.66A58.47,58.47,0,0,1,152,11.9a55.57,55.57,0,0,1,8.05.57c.67.08,1.33.24,2,.36s1.32.24,2,.42l1.95.48,1.92.62a43,43,0,0,1,14,7.63,71.16,71.16,0,0,0-14.6-5.38A62.45,62.45,0,0,0,152,14.9a63.55,63.55,0,0,0-7.67.47c-2.56.26-5.1.72-7.64,1.22A99.25,99.25,0,0,0,121.74,21Z"/><path d="M38.5,48.86A45.68,45.68,0,0,0,53,50.34c1.21,0,2.42-.11,3.62-.23s2.41-.2,3.61-.4c2.41-.29,4.8-.7,7.18-1.2s4.75-1,7.1-1.64l3.53-1c1.15-.38,2.32-.73,3.49-1.07a130.28,130.28,0,0,0,13.75-5.31A54.69,54.69,0,0,1,82.33,47c-1.16.48-2.32.94-3.5,1.38l-3.56,1.2c-2.4.71-4.83,1.33-7.29,1.84a62.5,62.5,0,0,1-15,1.23C48,52.42,42.81,51.42,38.5,48.86Z"/></g></g></svg>